<svg width="40" height="41" viewBox="0 0 40 41" fill="none" xmlns="http://www.w3.org/2000/svg">
<rect y="0.5" width="40" height="40" rx="20" fill="url(#paint0_linear_842_22233)"/>
<path d="M29.9994 25.4201V28.4201C30.0006 28.6986 29.9435 28.9743 29.832 29.2294C29.7204 29.4846 29.5567 29.7137 29.3515 29.902C29.1463 30.0902 28.904 30.2336 28.6402 30.3228C28.3764 30.412 28.0968 30.4452 27.8194 30.4201C24.7423 30.0857 21.7864 29.0342 19.1894 27.3501C16.7733 25.8148 14.7248 23.7663 13.1894 21.3501C11.4994 18.7413 10.4477 15.7711 10.1194 12.6801C10.0945 12.4036 10.1273 12.1249 10.2159 11.8617C10.3046 11.5986 10.447 11.3568 10.6342 11.1517C10.8214 10.9466 11.0492 10.7828 11.3032 10.6706C11.5572 10.5584 11.8318 10.5004 12.1094 10.5001H15.1094C15.5948 10.4953 16.0652 10.6672 16.4332 10.9836C16.8012 11.3001 17.0415 11.7395 17.1094 12.2201C17.2361 13.1802 17.4709 14.1228 17.8094 15.0301C17.944 15.388 17.9731 15.777 17.8934 16.151C17.8136 16.5249 17.6283 16.8682 17.3594 17.1401L16.0894 18.4101C17.513 20.9136 19.5859 22.9865 22.0894 24.4101L23.3594 23.1401C23.6313 22.8712 23.9746 22.6859 24.3486 22.6062C24.7225 22.5264 25.1115 22.5556 25.4694 22.6901C26.3767 23.0286 27.3194 23.2635 28.2794 23.3901C28.7652 23.4586 29.2088 23.7033 29.526 24.0776C29.8431 24.4519 30.0116 24.9297 29.9994 25.4201Z" stroke="white" stroke-width="2" stroke-linecap="round" stroke-linejoin="round"/>
<defs>
<linearGradient id="paint0_linear_842_22233" x1="40.3796" y1="-32.7809" x2="-5.61494" y2="-29.741" gradientUnits="userSpaceOnUse">
<stop stop-color="#00B6D7"/>
<stop offset="0.3" stop-color="#4ABEA6"/>
<stop offset="0.8" stop-color="#33AF4A"/>
</linearGradient>
</defs>
</svg>
