<svg width="70" height="71" viewBox="0 0 70 71" fill="none" xmlns="http://www.w3.org/2000/svg">
<g clip-path="url(#clip0_490_2905)">
<path d="M30.8442 64.3439C30.4264 64.3439 30.006 64.2411 29.631 64.0354C14.9587 56.2678 7 49.2767 7 34.6224V8.99783C7 8.44137 7.40574 7.96758 7.95564 7.8819L11.1658 7.38341C16.5001 6.57796 21.6941 5.03514 26.6072 2.7972L30.3703 1.07951C30.6631 0.946456 30.9988 0.94292 31.2927 1.07296L36.0709 3.16974C41.0301 5.36227 46.3461 6.85376 51.8748 7.60473L53.6969 7.84465C54.2584 7.91874 54.6787 8.39706 54.6787 8.96361V34.5869C54.6787 37.5663 54.343 40.2382 53.652 42.7543C53.4867 43.3556 52.8652 43.7094 52.2644 43.5441C51.6631 43.3788 51.3098 42.7573 51.4746 42.1565C52.1112 39.8379 52.4212 37.3622 52.4212 34.5869L52.4217 9.9533L51.5769 9.84191C45.8334 9.06217 40.3117 7.51274 35.1626 5.23557L30.8501 3.34344L27.5462 4.85196C22.4414 7.17661 17.0462 8.77946 11.5088 9.61559L9.2583 9.96538V34.6222C9.2583 48.2094 16.4801 54.5178 30.7035 62.0481C30.7867 62.0945 30.892 62.0925 30.9591 62.0572C32.8472 61.0572 34.4737 60.1535 35.9465 59.286C36.4833 58.9694 37.1758 59.1479 37.4923 59.6852C37.8093 60.2225 37.6299 60.9145 37.0931 61.231C35.5896 62.1166 33.9347 63.0369 32.0315 64.044C31.6686 64.2426 31.2568 64.3434 30.844 64.3434L30.8442 64.3439Z" fill="url(#paint0_linear_490_2905)"/>
<path d="M26.2688 41.94C26.0525 41.94 25.8348 41.8786 25.6443 41.7515L18.427 36.9572C17.9078 36.6124 17.7667 35.9113 18.1114 35.3922C18.4562 34.873 19.1558 34.7309 19.677 35.0761L26.1257 39.3604L41.8289 23.71C42.2705 23.271 42.9852 23.2715 43.4257 23.7131C43.8652 24.1546 43.8642 24.8698 43.4227 25.3098L27.0665 41.6118C26.8483 41.8291 26.56 41.941 26.2691 41.941L26.2688 41.94Z" fill="url(#paint1_linear_490_2905)"/>
<path d="M48.2016 70.9777C47.2928 70.9777 46.4369 70.6238 45.7918 69.9802C45.1955 69.3854 44.8442 68.6092 44.7867 67.7731C43.4964 67.5079 42.264 67.0578 41.1048 66.4293C40.4687 67.012 39.6531 67.3315 38.7893 67.332H38.7857C37.8689 67.332 37.0086 66.9732 36.3624 66.3205C35.1335 65.0815 35.0413 63.1168 36.0831 61.758C35.3357 60.5916 34.7757 59.3296 34.4092 57.9904C33.6179 57.9188 32.8835 57.576 32.3129 57.007C31.6572 56.3528 31.2973 55.4792 31.2998 54.5478C31.3044 52.7997 32.6023 51.3452 34.2756 51.1088C34.5891 49.7519 35.0982 48.4621 35.7967 47.26C34.641 45.9067 34.7015 43.8486 35.9757 42.5574C36.6294 41.8951 37.4984 41.5312 38.4223 41.5302H38.4253C39.2383 41.5302 40.0075 41.8129 40.6223 42.3326C41.7483 41.6461 42.9545 41.133 44.2241 40.7983C44.2463 38.9072 45.7821 37.3673 47.6631 37.3583C48.5663 37.3315 49.4408 37.7091 50.0896 38.3568C50.7347 39.0009 51.0931 39.8568 51.1022 40.7711C52.3023 41.0785 53.4435 41.5458 54.5125 42.1667L54.6456 42.0316C55.2988 41.3698 56.1668 41.0054 57.0911 41.0044H57.0947C58.0115 41.0044 58.8718 41.3633 59.518 42.0155C60.8502 43.3603 60.8467 45.5538 59.5115 46.9066L59.4041 47.0155C60.0256 48.0578 60.5019 49.1672 60.8295 50.333L61.142 50.332H61.1572C62.0665 50.332 62.9223 50.6859 63.5675 51.3305C64.2227 51.9843 64.5826 52.8578 64.5801 53.7892C64.5751 55.6954 63.0322 57.253 61.1406 57.261L60.9914 57.2615C60.7177 58.4556 60.2888 59.6023 59.7102 60.6869L59.9098 60.8885C61.2409 62.2313 61.2384 64.4258 59.9032 65.7782C59.2495 66.4405 58.3805 66.8049 57.4566 66.8055H57.4536C56.5443 66.8055 55.69 66.4521 55.0453 65.809C53.9909 66.5025 52.8563 67.0423 51.6547 67.4198V67.506C51.6507 69.4113 50.1079 70.9687 48.2153 70.9767C48.2127 70.9777 48.2067 70.9777 48.2016 70.9777L48.2016 70.9777ZM47.0388 66.8668L47.0373 67.5261C47.0368 67.8517 47.1607 68.1556 47.3881 68.3819C47.6063 68.6002 47.8956 68.7201 48.2026 68.7201H48.2076C48.8629 68.7171 49.3972 68.1702 49.3987 67.5014L49.4007 66.8068C49.4007 66.765 49.3977 66.7206 49.3931 66.6763C49.3397 66.1173 49.7041 65.6042 50.2495 65.4706C51.7974 65.0931 53.2268 64.4066 54.4985 63.4318C54.9844 63.0593 55.6825 63.142 56.066 63.6213C56.0927 63.6551 56.121 63.6873 56.1512 63.7191L56.6341 64.2055C56.8538 64.4273 57.1441 64.5482 57.4536 64.5482H57.4546C57.7707 64.5482 58.0696 64.4217 58.2959 64.1924C58.7656 63.7161 58.7702 62.9469 58.3054 62.4782L57.8216 61.9898C57.7702 61.9378 57.7107 61.8889 57.6472 61.8456C57.1436 61.5059 56.999 60.829 57.3195 60.3128C58.1582 58.964 58.7066 57.4892 58.9481 55.9278C58.9944 55.6304 59.1582 55.3628 59.4027 55.1858C59.6476 55.0089 59.9531 54.9373 60.25 54.9872C60.313 54.9978 60.381 54.9993 60.444 55.0054L61.1295 55.0019C61.7853 54.9988 62.3195 54.4515 62.321 53.7826C62.3221 53.457 62.1976 53.1531 61.9713 52.9268C61.7515 52.7075 61.4622 52.6072 61.1512 52.5885H61.1507L60.4652 52.5916C60.3841 52.5921 60.2968 52.6027 60.2096 52.6233C59.9143 52.6909 59.6018 52.6369 59.3457 52.4726C59.0902 52.3083 58.9113 52.0477 58.8503 51.7493C58.5348 50.211 57.9193 48.776 57.0206 47.4832C56.6728 46.9832 56.7842 46.2978 57.2726 45.9338C57.323 45.8965 57.3729 45.8572 57.4188 45.8108L57.9037 45.3189C58.3744 44.8421 58.379 44.0729 57.9137 43.6037C57.6945 43.3824 57.4042 43.2609 57.0942 43.2609H57.0932C56.7771 43.2614 56.4782 43.3879 56.2524 43.6168L55.7676 44.1087C55.7167 44.1601 55.6743 44.2151 55.6355 44.2715C55.2812 44.7786 54.5851 44.9061 54.0736 44.5578C52.7697 43.6682 51.3181 43.0719 49.759 42.7876C49.1899 42.6833 48.7912 42.1661 48.8361 41.589C48.8391 41.5573 48.8421 41.527 48.8421 41.4948L48.8437 40.8093C48.8447 40.4842 48.7202 40.1802 48.4939 39.9534C48.2741 39.7342 48.0095 39.6177 47.6738 39.6152C47.0185 39.6187 46.4843 40.1656 46.4828 40.8345L46.4812 41.528L46.4853 41.6006C46.5241 42.1702 46.1334 42.6974 45.5725 42.8047C43.9696 43.1117 42.4767 43.7483 41.1335 44.6958C40.6839 45.0144 40.069 44.96 39.6803 44.5683L39.2458 44.1303C39.0266 43.9091 38.7368 43.7876 38.4268 43.7876H38.4258C38.1092 43.7881 37.8104 43.9146 37.5845 44.1434C37.1148 44.6197 37.1102 45.3894 37.5755 45.8592L38.0261 46.3138C38.4051 46.6959 38.4616 47.2916 38.1617 47.7382C37.2171 49.1444 36.5997 50.708 36.3269 52.3844C36.2382 52.9293 35.7685 53.33 35.2166 53.332L34.7503 53.3335C34.0961 53.337 33.5613 53.8844 33.5598 54.5533C33.5593 54.8784 33.6833 55.1828 33.9106 55.4091C34.1304 55.6284 34.4091 55.7529 34.7307 55.7473L35.2992 55.7443H35.3048C35.841 55.7443 36.3033 56.1213 36.4106 56.647C36.7503 58.3063 37.4318 59.8361 38.4363 61.1934C38.7674 61.6404 38.7231 62.2624 38.332 62.6581L37.9776 63.017C37.5079 63.4933 37.5033 64.2625 37.9685 64.7312C38.1878 64.953 38.4781 65.0739 38.7876 65.0739H38.7886C39.1046 65.0739 39.403 64.9474 39.6288 64.7191L40.1142 64.2267C40.4872 63.8486 41.0784 63.7781 41.5256 64.0593C42.9101 64.9338 44.4349 65.4848 46.0579 65.6974C46.6204 65.7715 47.0402 66.2498 47.0402 66.8169C47.0397 66.833 47.0392 66.8501 47.0387 66.8668L47.0388 66.8668ZM61.1472 51.4603H61.1528H61.1472Z" fill="url(#paint2_linear_490_2905)"/>
<path d="M47.8976 61.2832C45.9455 61.2832 44.1205 60.5342 42.755 59.1708C41.4184 57.8366 40.6844 56.0679 40.6895 54.1919C40.6991 50.2725 43.9561 47.0694 47.9516 47.0518C49.9193 47.0694 51.7535 47.7932 53.1275 49.1631C54.4641 50.4973 55.1986 52.266 55.194 54.143C55.184 58.0624 51.9259 61.266 47.9314 61.2837C47.9198 61.2832 47.9088 61.2832 47.8977 61.2832L47.8976 61.2832ZM47.9853 49.3093H47.9611C45.2026 49.3214 42.9531 51.514 42.9471 54.1969C42.9435 55.4676 43.442 56.6668 44.3493 57.5719C45.2888 58.5089 46.5478 59.0246 47.8977 59.0246H47.9208C50.6789 59.0125 52.9289 56.8194 52.9354 54.1364C52.9385 52.8658 52.44 51.6666 51.5322 50.7614C50.5937 49.8239 49.3341 49.3093 47.9854 49.3093H47.9853ZM54.065 54.14H54.0705H54.065Z" fill="url(#paint3_linear_490_2905)"/>
</g>
<defs>
<linearGradient id="paint0_linear_490_2905" x1="55.1312" y1="-51.7448" x2="0.203525" y2="-49.0132" gradientUnits="userSpaceOnUse">
<stop stop-color="#00B6D7"/>
<stop offset="0.3" stop-color="#4ABEA6"/>
<stop offset="0.8" stop-color="#33AF4A"/>
</linearGradient>
<linearGradient id="paint1_linear_490_2905" x1="43.9997" y1="7.93931" x2="14.4173" y2="10.6606" gradientUnits="userSpaceOnUse">
<stop stop-color="#00B6D7"/>
<stop offset="0.3" stop-color="#4ABEA6"/>
<stop offset="0.8" stop-color="#33AF4A"/>
</linearGradient>
<linearGradient id="paint2_linear_490_2905" x1="64.8959" y1="9.38364" x2="26.6248" y2="11.8875" gradientUnits="userSpaceOnUse">
<stop stop-color="#00B6D7"/>
<stop offset="0.3" stop-color="#4ABEA6"/>
<stop offset="0.8" stop-color="#33AF4A"/>
</linearGradient>
<linearGradient id="paint3_linear_490_2905" x1="55.3317" y1="35.2105" x2="38.6562" y2="36.3337" gradientUnits="userSpaceOnUse">
<stop stop-color="#00B6D7"/>
<stop offset="0.3" stop-color="#4ABEA6"/>
<stop offset="0.8" stop-color="#33AF4A"/>
</linearGradient>
<clipPath id="clip0_490_2905">
<rect width="70" height="70" fill="white" transform="translate(0 0.977539)"/>
</clipPath>
</defs>
</svg>
